<svg width="241" height="241" xmlns="http://www.w3.org/2000/svg" xmlns:xlink="http://www.w3.org/1999/xlink" overflow="hidden"><defs><clipPath id="clip0"><rect x="177" y="37" width="241" height="241"/></clipPath><linearGradient x1="297" y1="38" x2="297" y2="278" gradientUnits="userSpaceOnUse" spreadMethod="reflect" id="fill1"><stop offset="0" stop-color="#F5F9FD"/><stop offset="0.74" stop-color="#B6D2EB"/><stop offset="0.83" stop-color="#B6D2EB"/><stop offset="1" stop-color="#CBDFF0"/></linearGradient></defs><g clip-path="url(#clip0)" transform="translate(-177 -37)"><path d="M177 158C177 91.7258 230.726 38 297 38 363.274 38 417 91.7258 417 158 417 224.274 363.274 278 297 278 230.726 278 177 224.274 177 158Z" fill="url(#fill1)" fill-rule="evenodd"/><path d="M308.966 212.794 308.926 212.552 308.926 212.39 308.926 212.229 308.926 212.027 308.926 165.413C304.283 164.484 299.322 164 294.241 164 291.106 164 288.05 164.202 285.074 164.565L285.074 212.511 285.074 212.632 285.034 212.874C284.994 213.238 284.637 219.291 287.574 223.166 289.479 225.668 292.654 227 297.02 227 301.385 226.96 304.6 225.668 306.465 223.166 309.363 219.251 309.005 213.238 308.966 212.794ZM289.995 180.789C287.971 180.789 286.304 179.135 286.304 177.036 286.304 174.978 287.931 173.283 289.995 173.283 292.019 173.283 293.686 174.937 293.686 177.036 293.646 179.135 291.979 180.789 289.995 180.789ZM297.932 189.91C296.821 189.91 295.948 189.022 295.948 187.892 295.948 186.762 296.821 185.874 297.932 185.874 299.044 185.874 299.917 186.762 299.917 187.892 299.917 189.022 299.044 189.91 297.932 189.91ZM301.862 176.592C299.163 176.592 296.98 174.372 296.98 171.628 296.98 168.883 299.163 166.664 301.862 166.664 304.56 166.664 306.743 168.883 306.743 171.628 306.743 174.372 304.56 176.592 301.862 176.592Z" fill-rule="evenodd"/><path d="M332 82.5907 332 75 262 75 262 82.5907 275.192 82.5907 275.192 211.752C275.073 213.47 274.756 221.46 278.718 228.252 279.114 228.931 279.55 229.57 280.025 230.21 283.828 235.283 289.493 237.92 296.822 238 296.861 238 296.861 238 296.901 238 296.941 238 296.98 238 296.98 238 297.02 238 297.059 238 297.059 238 297.099 238 297.099 238 297.139 238 304.467 237.92 310.132 235.283 313.936 230.21 314.807 229.051 315.52 227.813 316.114 226.574 319.165 220.182 318.887 213.31 318.769 211.712L318.769 82.5907 332 82.5907ZM308.35 224.377C305.973 227.493 302.17 229.091 297.02 229.131 291.87 229.091 288.067 227.493 285.69 224.377 282.085 219.623 282.679 212.551 282.679 212.511L282.719 212.232 282.719 82.5907 311.321 82.5907 311.321 211.992 311.321 212.232 311.361 212.511C311.321 212.551 311.915 219.623 308.35 224.377Z" fill-rule="evenodd"/><path d="M307 153C307 155.761 304.761 158 302 158 299.239 158 297 155.761 297 153 297 150.239 299.239 148 302 148 304.761 148 307 150.239 307 153Z" fill-rule="evenodd"/><path d="M294 140C294 142.209 292.209 144 290 144 287.791 144 286 142.209 286 140 286 137.791 287.791 136 290 136 292.209 136 294 137.791 294 140Z" fill-rule="evenodd"/><path d="M300 133C300 134.105 299.105 135 298 135 296.895 135 296 134.105 296 133 296 131.895 296.895 131 298 131 299.105 131 300 131.895 300 133Z" fill-rule="evenodd"/></g></svg>