<svg width="241" height="241" xmlns="http://www.w3.org/2000/svg" xmlns:xlink="http://www.w3.org/1999/xlink" overflow="hidden"><defs><clipPath id="clip0"><rect x="570" y="550" width="241" height="241"/></clipPath><linearGradient x1="691" y1="550" x2="691" y2="790" gradientUnits="userSpaceOnUse" spreadMethod="reflect" id="fill1"><stop offset="0" stop-color="#F5F9FD"/><stop offset="0.74" stop-color="#B6D2EB"/><stop offset="0.83" stop-color="#B6D2EB"/><stop offset="1" stop-color="#CBDFF0"/></linearGradient></defs><g clip-path="url(#clip0)" transform="translate(-570 -550)"><path d="M571 670C571 603.726 624.726 550 691 550 757.274 550 811 603.726 811 670 811 736.274 757.274 790 691 790 624.726 790 571 736.274 571 670Z" fill="url(#fill1)" fill-rule="evenodd"/><path d="M0 0 60.442 14.5411" stroke="#000000" stroke-width="3.33333" stroke-miterlimit="8" fill="none" fill-rule="evenodd" transform="matrix(1 0 0 -1 615.5 640.041)"/><path d="M615.5 702.5 675.355 712.749" stroke="#000000" stroke-width="3.33333" stroke-miterlimit="8" fill="none" fill-rule="evenodd"/><path d="M0 0 59.8548 76.9" stroke="#000000" stroke-width="3.33333" stroke-miterlimit="8" fill="none" fill-rule="evenodd" transform="matrix(1 0 0 -1 615.5 702.4)"/><path d="M615.5 639.5 675.942 712.108" stroke="#000000" stroke-width="3.33333" stroke-miterlimit="8" fill="none" fill-rule="evenodd"/><path d="M615.5 639.5 665.958 654.43" stroke="#000000" stroke-width="3.33333" stroke-miterlimit="8" fill="none" fill-rule="evenodd"/><path d="M0 0 49.8728 21.2534" stroke="#000000" stroke-width="3.33333" stroke-miterlimit="8" fill="none" fill-rule="evenodd" transform="matrix(1 0 0 -1 615.5 701.753)"/><path d="M767.315 670.121 705.5 625.5" stroke="#000000" stroke-width="3.33333" stroke-miterlimit="8" fill="none" fill-rule="evenodd"/><path d="M0 0 61.8147 42.5279" stroke="#000000" stroke-width="3.33333" stroke-miterlimit="8" fill="none" fill-rule="evenodd" transform="matrix(-1 0 0 1 767.315 669.5)"/><path d="M713.5 653.5 767.372 669.583" stroke="#000000" stroke-width="3.33333" stroke-miterlimit="8" fill="none" fill-rule="evenodd"/><path d="M0 0 54.4151 13.6634" stroke="#000000" stroke-width="3.33333" stroke-miterlimit="8" fill="none" fill-rule="evenodd" transform="matrix(1 0 0 -1 713.5 683.163)"/><path d="M675 624C675 615.716 681.716 609 690 609 698.284 609 705 615.716 705 624 705 632.284 698.284 639 690 639 681.716 639 675 632.284 675 624Z" stroke="#000000" stroke-width="5.66667" stroke-miterlimit="8" fill="none" fill-rule="evenodd"/><path d="M675 655C675 646.716 681.716 640 690 640 698.284 640 705 646.716 705 655 705 663.284 698.284 670 690 670 681.716 670 675 663.284 675 655Z" stroke="#000000" stroke-width="5.66667" stroke-miterlimit="8" fill="none" fill-rule="evenodd"/><path d="M675 686C675 677.716 681.716 671 690 671 698.284 671 705 677.716 705 686 705 694.284 698.284 701 690 701 681.716 701 675 694.284 675 686Z" stroke="#000000" stroke-width="5.66667" stroke-miterlimit="8" fill="none" fill-rule="evenodd"/><path d="M675 716.5C675 707.94 681.716 701 690 701 698.284 701 705 707.94 705 716.5 705 725.06 698.284 732 690 732 681.716 732 675 725.06 675 716.5Z" stroke="#000000" stroke-width="5.66667" stroke-miterlimit="8" fill="none" fill-rule="evenodd"/><path d="M766 669.5C766 660.94 772.716 654 781 654 789.284 654 796 660.94 796 669.5 796 678.06 789.284 685 781 685 772.716 685 766 678.06 766 669.5Z" stroke="#000000" stroke-width="5.66667" stroke-miterlimit="8" fill="none" fill-rule="evenodd"/><path d="M585 639C585 630.716 591.716 624 600 624 608.284 624 615 630.716 615 639 615 647.284 608.284 654 600 654 591.716 654 585 647.284 585 639Z" stroke="#000000" stroke-width="5.66667" stroke-miterlimit="8" fill="none" fill-rule="evenodd"/><path d="M586 671C586 662.716 592.492 656 600.5 656 608.508 656 615 662.716 615 671 615 679.284 608.508 686 600.5 686 592.492 686 586 679.284 586 671Z" stroke="#000000" stroke-width="5.66667" stroke-miterlimit="8" fill="none" fill-rule="evenodd"/><path d="M586 701.5C586 692.94 592.492 686 600.5 686 608.508 686 615 692.94 615 701.5 615 710.06 608.508 717 600.5 717 592.492 717 586 710.06 586 701.5Z" stroke="#000000" stroke-width="5.66667" stroke-miterlimit="8" fill="none" fill-rule="evenodd"/></g></svg>