<svg width="242" height="241" xmlns="http://www.w3.org/2000/svg" xmlns:xlink="http://www.w3.org/1999/xlink" overflow="hidden"><defs><clipPath id="clip0"><rect x="572" y="276" width="242" height="241"/></clipPath><linearGradient x1="693" y1="276" x2="693" y2="516" gradientUnits="userSpaceOnUse" spreadMethod="reflect" id="fill1"><stop offset="0" stop-color="#F5F9FD"/><stop offset="0.74" stop-color="#B6D2EB"/><stop offset="0.83" stop-color="#B6D2EB"/><stop offset="1" stop-color="#CBDFF0"/></linearGradient></defs><g clip-path="url(#clip0)" transform="translate(-572 -276)"><path d="M573 396C573 329.726 626.726 276 693 276 759.274 276 813 329.726 813 396 813 462.274 759.274 516 693 516 626.726 516 573 462.274 573 396Z" fill="url(#fill1)" fill-rule="evenodd"/><path d="M766.333 317 619.667 317C611.569 317 605 323.593 605 331.719L605 429.844C605 437.97 611.569 444.562 619.667 444.562L678.333 444.562 673.444 459.281 651.444 459.281C647.381 459.281 644.111 462.562 644.111 466.641 644.111 470.719 647.381 474 651.444 474L734.556 474C738.619 474 741.889 470.719 741.889 466.641 741.889 462.562 738.619 459.281 734.556 459.281L712.556 459.281 707.667 444.562 766.333 444.562C774.431 444.562 781 437.97 781 429.844L781 331.719C781 323.593 774.431 317 766.333 317ZM761.444 424.938 624.556 424.938 624.556 336.625 761.444 336.625 761.444 424.938Z" fill-rule="evenodd"/><path d="M707.5 379.812 707.5 383.969C707.5 384.948 706.684 385.75 705.688 385.75L680.312 385.75C679.316 385.75 678.5 384.948 678.5 383.969L678.5 379.812C678.5 378.833 679.316 378.031 680.312 378.031L705.688 378.031C706.684 378.031 707.5 378.833 707.5 379.812ZM705.688 390.5 680.312 390.5C679.316 390.5 678.5 391.302 678.5 392.281L678.5 396.438C678.5 397.417 679.316 398.219 680.312 398.219L705.688 398.219C706.684 398.219 707.5 397.417 707.5 396.438L707.5 392.281C707.5 391.302 706.684 390.5 705.688 390.5ZM722 362.579 722 411.875C722 415.809 718.753 419 714.75 419L671.25 419C667.247 419 664 415.809 664 411.875L664 350.125C664 346.191 667.247 343 671.25 343L702.078 343C703.996 343 705.839 343.757 707.198 345.093L719.87 357.547C721.23 358.868 722 360.694 722 362.579ZM702.667 350.704 702.667 362 714.161 362 702.667 350.704ZM714.75 411.875 714.75 369.125 699.042 369.125C697.033 369.125 695.417 367.537 695.417 365.562L695.417 350.125 671.25 350.125 671.25 411.875 714.75 411.875Z" fill-rule="evenodd"/></g></svg>