<svg width="241" height="241" xmlns="http://www.w3.org/2000/svg" xmlns:xlink="http://www.w3.org/1999/xlink" overflow="hidden"><defs><clipPath id="clip0"><rect x="189" y="276" width="241" height="241"/></clipPath><linearGradient x1="309" y1="276" x2="309" y2="516" gradientUnits="userSpaceOnUse" spreadMethod="reflect" id="fill1"><stop offset="0" stop-color="#F5F9FD"/><stop offset="0.74" stop-color="#B6D2EB"/><stop offset="0.83" stop-color="#B6D2EB"/><stop offset="1" stop-color="#CBDFF0"/></linearGradient></defs><g clip-path="url(#clip0)" transform="translate(-189 -276)"><path d="M189 396C189 329.726 242.726 276 309 276 375.274 276 429 329.726 429 396 429 462.274 375.274 516 309 516 242.726 516 189 462.274 189 396Z" fill="url(#fill1)" fill-rule="evenodd"/><path d="M353 344 347.215 344.008 312.544 378.67 297.836 363.899 317.724 344.018 311.858 344.017 294.91 360.961 278.025 344.005 272 344.007 310.468 382.462 310.468 417 314.552 417 314.552 382.438Z" fill-rule="evenodd"/><path d="M382.333 317 235.667 317C227.569 317 221 323.593 221 331.719L221 429.844C221 437.97 227.569 444.562 235.667 444.562L294.333 444.562 289.444 459.281 267.444 459.281C263.381 459.281 260.111 462.562 260.111 466.641 260.111 470.719 263.381 474 267.444 474L350.556 474C354.619 474 357.889 470.719 357.889 466.641 357.889 462.562 354.619 459.281 350.556 459.281L328.556 459.281 323.667 444.562 382.333 444.562C390.431 444.562 397 437.97 397 429.844L397 331.719C397 323.593 390.431 317 382.333 317ZM377.444 424.938 240.556 424.938 240.556 336.625 377.444 336.625 377.444 424.938Z" fill-rule="evenodd"/></g></svg>