<?xml version="1.0" encoding="utf-8"?>
<!-- Generator: Adobe Illustrator 27.1.1, SVG Export Plug-In . SVG Version: 6.00 Build 0)  -->
<svg version="1.0" id="Layer_1" xmlns="http://www.w3.org/2000/svg" xmlns:xlink="http://www.w3.org/1999/xlink" x="0px" y="0px"
	 viewBox="0 0 720 288" style="enable-background:new 0 0 720 288;" xml:space="preserve">
<style type="text/css">
	.st0{fill:#020202;}
	.st1{fill:#2C358C;}
	.st2{fill:#4E98D2;}
	.st3{fill:#47B649;}
	.st4{fill:#FFFFFF;}
</style>
<g>
	<path d="M2.9,223.3h29.8v9.3H14.1v10.2h15.9v9.3H14.1V270H2.9V223.3z"/>
	<path d="M36.6,252.1c0-11.5,8.3-18.7,16.9-18.7c10.3,0,15.4,7.5,15.4,17.1c0,2-0.2,3.9-0.4,4.9h-21c1,4.8,4.4,6.9,8.9,6.9
		c2.6,0,5.2-0.8,7.7-2.2l3.6,6.7c-3.7,2.7-8.6,4-12.8,4C44.5,270.9,36.6,264,36.6,252.1z M59.3,248c0-3.5-1.6-6.2-5.6-6.2
		c-3.2,0-5.8,2-6.5,6.2H59.3z"/>
	<path d="M75.9,234.3h9l0.8,6.2H86c2.6-4.8,6.5-7,10.1-7c2.1,0,3.3,0.2,4.3,0.7l-2.1,9.4c-1.3-0.3-2.1-0.4-3.7-0.4
		c-2.7,0-5.9,1.7-7.7,6.5V270h-11V234.3z"/>
	<path d="M104.9,234.3h9l0.8,4.4h0.3c2.9-2.9,6-5.3,10.8-5.3c4.9,0,8,2.1,9.8,5.9c3.1-3.2,6.4-5.9,11.1-5.9
		c7.7,0,11.2,5.5,11.2,14.4V270h-11v-20.7c0-4.9-1.4-6.5-4.2-6.5c-1.7,0-3.6,1.1-5.7,3.2V270h-11.1v-20.7c0-4.9-1.3-6.5-4.2-6.5
		c-1.6,0-3.6,1.1-5.7,3.2V270h-11V234.3z"/>
	<path d="M164.7,252.1c0-11.5,8.3-18.7,16.9-18.7c10.3,0,15.4,7.5,15.4,17.1c0,2-0.2,3.9-0.4,4.9h-21c1,4.8,4.4,6.9,8.9,6.9
		c2.6,0,5.2-0.8,7.7-2.2l3.6,6.7c-3.7,2.7-8.6,4-12.8,4C172.6,270.9,164.7,264,164.7,252.1z M187.4,248c0-3.5-1.6-6.2-5.6-6.2
		c-3.2,0-5.8,2-6.5,6.2H187.4z"/>
	<path d="M204,234.3h9l0.8,4.4h0.3c2.9-2.9,6.5-5.3,11.4-5.3c7.7,0,11,5.5,11,14.4V270h-11.1v-20.7c0-4.9-1.3-6.5-4.2-6.5
		c-2.5,0-4,1.2-6.2,3.2V270h-11V234.3z"/>
	<path d="M246.7,256.8V243h-4.8v-8.3l5.5-0.4l1.3-10.9h9.2v10.9h8.4v8.7h-8.4v13.6c0,4,1.9,5.5,4.5,5.5c1.1,0,2.4-0.1,3.3-0.5
		l1.7,7.7c-1.9,0.7-4.6,1.4-8.1,1.4C250.3,270.9,246.7,265.2,246.7,256.8z"/>
	<path d="M270.1,260c0-7.5,5.8-11.6,19.9-13.1c-0.3-2.9-1.8-4.7-5.5-4.7c-2.9,0-5.7,1-9.3,3l-3.9-7.2c4.7-2.9,9.8-4.7,15.4-4.7
		c9.2,0,14.3,5.1,14.3,16.3V270h-9l-0.8-3.6h-0.3c-2.9,2.7-6.2,4.4-10.2,4.4C274.2,270.9,270.1,266,270.1,260z M289.9,259.4v-5.7
		c-7.1,0.9-9.3,2.9-9.3,5.4c0,2.1,1.4,3.1,3.8,3.1C286.7,262.2,288.2,261.2,289.9,259.4z"/>
	<path d="M309.7,256.8V243h-4.8v-8.3l5.5-0.4l1.3-10.9h9.2v10.9h8.4v8.7h-8.4v13.6c0,4,1.9,5.5,4.5,5.5c1.1,0,2.4-0.1,3.3-0.5
		l1.7,7.7c-1.9,0.7-4.6,1.4-8.1,1.4C313.4,270.9,309.7,265.2,309.7,256.8z"/>
	<path d="M335.4,223.6c0-3.4,2.6-5.7,6.2-5.7s6.2,2.2,6.2,5.7c0,3.5-2.6,5.7-6.2,5.7S335.4,227.1,335.4,223.6z M336.1,234.3h11V270
		h-11V234.3z"/>
	<path d="M354.2,252.1c0-11.8,8.4-18.7,17.4-18.7c9.1,0,17.5,6.8,17.5,18.7c0,11.8-8.4,18.7-17.5,18.7
		C362.6,270.9,354.2,264,354.2,252.1z M377.7,252.1c0-5.9-1.9-9.8-6.1-9.8c-4.2,0-6.1,3.9-6.1,9.8c0,6,1.9,9.8,6.1,9.8
		C375.8,261.9,377.7,258.1,377.7,252.1z"/>
	<path d="M396.2,234.3h9l0.8,4.4h0.3c2.9-2.9,6.5-5.3,11.4-5.3c7.7,0,11,5.5,11,14.4V270h-11.1v-20.7c0-4.9-1.3-6.5-4.2-6.5
		c-2.5,0-4,1.2-6.2,3.2V270h-11V234.3z"/>
	<path d="M452.6,223.3h29.6v9.3h-18.4v8.8h15.7v9.3h-15.7v10h19.1v9.3h-30.3V223.3z"/>
	<path d="M495.3,251.4l-10.3-17.1H497l2.9,5.5c1,1.9,2,4.1,3,6.1h0.3c0.7-2,1.6-4.2,2.3-6.1l2.2-5.5h11.5L509,252.7l10.8,17.3h-11.9
		l-3.3-5.6c-1.1-2-2.2-4.2-3.2-6.2h-0.3c-0.9,2-1.8,4.1-2.7,6.2l-2.6,5.6h-11.5L495.3,251.4z"/>
	<path d="M525.4,234.3h9l0.8,3.4h0.3c2.7-2.5,6.3-4.3,10-4.3c8.6,0,13.9,7.1,13.9,18.1c0,12.3-7.2,19.3-14.9,19.3
		c-3.1,0-5.9-1.3-8.4-3.7l0.4,5.5V283h-11V234.3z M548,251.7c0-6.2-1.9-9.2-5.8-9.2c-2.1,0-3.8,0.9-5.7,3v14.1
		c1.8,1.6,3.7,2.1,5.4,2.1C545.2,261.7,548,258.9,548,251.7z"/>
	<path d="M566.6,258.4v-38.6h11v39c0,2.3,1.1,3,2,3c0.4,0,0.7,0,1.3-0.1l1.3,8.2c-1.2,0.5-3.1,0.9-5.5,0.9
		C569.1,270.9,566.6,265.9,566.6,258.4z"/>
	<path d="M585.4,252.1c0-11.8,8.4-18.7,17.4-18.7c9.1,0,17.5,6.8,17.5,18.7c0,11.8-8.4,18.7-17.5,18.7
		C593.8,270.9,585.4,264,585.4,252.1z M608.9,252.1c0-5.9-1.9-9.8-6.1-9.8s-6.1,3.9-6.1,9.8c0,6,1.9,9.8,6.1,9.8
		S608.9,258.1,608.9,252.1z"/>
	<path d="M627.4,234.3h9l0.8,6.2h0.3c2.6-4.8,6.5-7,10.1-7c2.1,0,3.3,0.2,4.3,0.7l-2.1,9.4c-1.3-0.3-2.1-0.4-3.7-0.4
		c-2.7,0-5.9,1.7-7.7,6.5V270h-11V234.3z"/>
	<path d="M653.7,252.1c0-11.5,8.3-18.7,16.9-18.7c10.3,0,15.4,7.5,15.4,17.1c0,2-0.2,3.9-0.4,4.9h-21c1,4.8,4.4,6.9,8.9,6.9
		c2.6,0,5.2-0.8,7.7-2.2l3.6,6.7c-3.7,2.7-8.6,4-12.8,4C661.6,270.9,653.7,264,653.7,252.1z M676.5,248c0-3.5-1.6-6.2-5.6-6.2
		c-3.2,0-5.8,2-6.5,6.2H676.5z"/>
	<path d="M693,234.3h9l0.8,6.2h0.3c2.6-4.8,6.5-7,10.1-7c2.1,0,3.3,0.2,4.3,0.7l-2.1,9.4c-1.3-0.3-2.1-0.4-3.7-0.4
		c-2.7,0-5.9,1.7-7.7,6.5V270h-11V234.3z"/>
</g>
<g id="Layer_3">
	<g>
		<polygon class="st0" points="406.5,27.5 460.4,103.3 441,117.3 386.8,41.4 		"/>
		<path class="st1" d="M504.2,145.6h-78.8v7.3h51.2v30.3h-38.6c-33.6,0-60.8-27.3-60.8-60.8c0-19,9-36.9,23.6-48.2l38.2,53.5
			l31.6-22.3l-62.5-88.2l-31.6,22.6L396.8,68c-17,12.6-26.9,32.9-26.9,54.2c0,36.2,28.6,66.2,64.5,67.8v9h-42.6v16h7.6v-8.6H477v8.6
			h7.3v-16h-42.6v-8.6h42.6v-37.6h20V145.6L504.2,145.6z"/>
		<polygon class="st2" points="378.9,31.1 370.6,19.8 391.2,5.2 399.5,16.5 393.5,20.8 389.5,15.5 380.8,21.5 384.8,26.8 		"/>
		<polygon class="st2" points="448.4,128.6 469.3,113.6 473.6,120 452.7,134.9 		"/>
		<polygon class="st3" points="370.6,159.5 366.9,152.9 334.3,171.8 299.4,151.6 299.4,111.3 334.3,91 361.2,106.6 364.9,100.3 
			334.3,82.4 295.4,105 256.8,82.4 216.2,106 220.2,112.3 256.8,91 291.7,111.3 291.7,155.8 330.6,178.4 330.6,213 338,213 
			338,178.4 		"/>
		
			<rect x="412" y="25.9" transform="matrix(0.8141 -0.5807 0.5807 0.8141 36.6721 259.6503)" class="st4" width="23.9" height="93.2"/>
	</g>
</g>
</svg>
