<svg width="242" height="242" xmlns="http://www.w3.org/2000/svg" xmlns:xlink="http://www.w3.org/1999/xlink" overflow="hidden"><defs><clipPath id="clip0"><rect x="559" y="31" width="242" height="242"/></clipPath><linearGradient x1="680" y1="32" x2="680" y2="272" gradientUnits="userSpaceOnUse" spreadMethod="reflect" id="fill1"><stop offset="0" stop-color="#F5F9FD"/><stop offset="0.74" stop-color="#B6D2EB"/><stop offset="0.83" stop-color="#B6D2EB"/><stop offset="1" stop-color="#CBDFF0"/></linearGradient></defs><g clip-path="url(#clip0)" transform="translate(-559 -31)"><path d="M560 152C560 85.7258 613.726 32 680 32 746.274 32 800 85.7258 800 152 800 218.274 746.274 272 680 272 613.726 272 560 218.274 560 152Z" fill="url(#fill1)" fill-rule="evenodd"/><path d="M764 82 751.858 82.0172 679.093 155.14 648.224 123.98 689.964 82.038 677.653 82.0362 642.082 117.782 606.646 82.0103 594 82.0137 674.735 163.139 674.735 236 683.306 236 683.306 163.088Z" fill-rule="evenodd"/></g></svg>