<?xml version="1.0" encoding="UTF-8"?><svg id="Layer_1" xmlns="http://www.w3.org/2000/svg" viewBox="0 0 720 524.62"><defs><style>.cls-1{fill:#010101;}</style></defs><path class="cls-1" d="M475.57,55.7l134.69,189.56-48.22,34.92L426.51,90.62l49.05-34.92Zm244.43,295.15h-197.04v18.29h128.04v75.66h-96.44c-83.97,0-152.15-68.18-152.15-152.15,0-47.39,22.45-92.29,59.03-120.55l95.61,133.86,78.98-55.7L479.72,29.93l-78.98,56.54,50.72,70.67c-42.4,31.59-67.34,82.31-67.34,135.52,0,90.62,71.5,165.45,161.29,169.61v22.45h-106.42v39.91h19.12v-21.62h193.72v21.62h18.29v-39.91h-106.42v-21.62h106.42v-93.95h49.88v-18.29ZM406.56,64.85l-20.79-28.27L437.32,0l20.79,28.27-14.97,10.81-9.98-13.3-21.62,14.97,9.98,13.3-14.97,10.81Zm173.76,243.6l52.38-37.41,10.81,15.8-52.38,37.41-10.81-15.8Zm-194.55,77.32l-9.15-16.63-81.48,47.39-87.3-50.72v-100.6l87.3-50.72,67.34,39.08,9.15-15.8-76.49-44.9-97.27,56.54-96.44-56.54L0,251.92l9.98,15.8,91.45-53.21,87.3,50.72v111.41l97.27,56.54v86.47h18.29v-86.47l81.48-47.39Z"/></svg>