<svg width="758" height="226" xmlns="http://www.w3.org/2000/svg" xmlns:xlink="http://www.w3.org/1999/xlink" overflow="hidden"><defs><clipPath id="clip0"><rect x="218" y="245" width="758" height="226"/></clipPath><radialGradient cx="725675" cy="725674" r="1.02626e+06" fx="725676" fy="725674" gradientUnits="userSpaceOnUse" spreadMethod="pad" id="fill1" gradientTransform="matrix(6.03277e-05 -8.59233e-05 8.59233e-05 6.03277e-05 231.702 363.348)"><stop offset="0" stop-color="#FFFFFF"/><stop offset="0.0159375" stop-color="#FEFEFE"/><stop offset="0.031875" stop-color="#FEFEFE"/><stop offset="0.0478125" stop-color="#FEFEFE"/><stop offset="0.06375" stop-color="#FEFEFE"/><stop offset="0.0796875" stop-color="#FDFEFE"/><stop offset="0.095625" stop-color="#FDFEFE"/><stop offset="0.111562" stop-color="#FDFDFE"/><stop offset="0.1275" stop-color="#FCFDFE"/><stop offset="0.143438" stop-color="#FBFDFE"/><stop offset="0.159375" stop-color="#FBFCFE"/><stop offset="0.175312" stop-color="#FAFCFD"/><stop offset="0.19125" stop-color="#F9FBFD"/><stop offset="0.207188" stop-color="#F8FBFD"/><stop offset="0.223125" stop-color="#F7FAFD"/><stop offset="0.239062" stop-color="#F7FAFD"/><stop offset="0.255" stop-color="#F6F9FC"/><stop offset="0.270938" stop-color="#F4F8FC"/><stop offset="0.286875" stop-color="#F3F8FC"/><stop offset="0.302812" stop-color="#F2F7FB"/><stop offset="0.31875" stop-color="#F1F6FB"/><stop offset="0.334688" stop-color="#F0F5FB"/><stop offset="0.350625" stop-color="#EEF5FB"/><stop offset="0.366562" stop-color="#EDF4FA"/><stop offset="0.3825" stop-color="#EBF3FA"/><stop offset="0.398438" stop-color="#EAF2F9"/><stop offset="0.414375" stop-color="#E8F1F9"/><stop offset="0.430312" stop-color="#E7F0F9"/><stop offset="0.44625" stop-color="#E5EFF8"/><stop offset="0.462187" stop-color="#E3EEF8"/><stop offset="0.478125" stop-color="#E1EDF7"/><stop offset="0.494062" stop-color="#DFECF7"/><stop offset="0.51" stop-color="#DEEBF7"/><stop offset="0.525312" stop-color="#DFECF7"/><stop offset="0.540625" stop-color="#E1EDF7"/><stop offset="0.555937" stop-color="#E3EEF8"/><stop offset="0.57125" stop-color="#E5EFF8"/><stop offset="0.586563" stop-color="#E7F0F9"/><stop offset="0.601875" stop-color="#E8F1F9"/><stop offset="0.617188" stop-color="#EAF2F9"/><stop offset="0.6325" stop-color="#EBF3FA"/><stop offset="0.647812" stop-color="#EDF4FA"/><stop offset="0.663125" stop-color="#EEF5FB"/><stop offset="0.678437" stop-color="#F0F5FB"/><stop offset="0.69375" stop-color="#F1F6FB"/><stop offset="0.709062" stop-color="#F2F7FB"/><stop offset="0.724375" stop-color="#F3F8FC"/><stop offset="0.739688" stop-color="#F4F8FC"/><stop offset="0.755" stop-color="#F6F9FC"/><stop offset="0.770312" stop-color="#F7FAFD"/><stop offset="0.785625" stop-color="#F7FAFD"/><stop offset="0.800938" stop-color="#F8FBFD"/><stop offset="0.81625" stop-color="#F9FBFD"/><stop offset="0.831563" stop-color="#FAFCFD"/><stop offset="0.846875" stop-color="#FBFCFE"/><stop offset="0.862188" stop-color="#FBFDFE"/><stop offset="0.8775" stop-color="#FCFDFE"/><stop offset="0.892812" stop-color="#FDFDFE"/><stop offset="0.908125" stop-color="#FDFEFE"/><stop offset="0.923437" stop-color="#FDFEFE"/><stop offset="0.93875" stop-color="#FEFEFE"/><stop offset="0.954062" stop-color="#FEFEFE"/><stop offset="0.969375" stop-color="#FEFEFE"/><stop offset="0.984688" stop-color="#FEFEFE"/><stop offset="1" stop-color="#FFFFFF"/></radialGradient></defs><g clip-path="url(#clip0)" transform="translate(-218 -245)"><path d="M288.388 415.197C249.032 387.565 239.528 333.261 267.16 293.905 294.793 254.549 349.097 245.045 388.453 272.678 427.808 300.31 437.312 354.614 409.68 393.97 382.048 433.326 327.744 442.829 288.388 415.197Z" fill="#002060" fill-rule="evenodd"/><path d="M294.055 407.126C259.618 382.948 251.303 335.432 275.481 300.996 299.659 266.559 347.175 258.243 381.611 282.421 416.048 306.6 424.363 354.116 400.185 388.552 376.007 422.988 328.491 431.304 294.055 407.126Z" fill="url(#fill1)" fill-rule="evenodd"/><path d="M400.244 400.114C398.67 399.009 398.29 396.836 399.395 395.262L407.402 383.857C408.508 382.283 410.68 381.902 412.255 383.008L457.453 414.742C459.027 415.847 459.408 418.02 458.302 419.595L450.295 430.999C449.189 432.574 447.017 432.954 445.442 431.848Z" fill="#002060" fill-rule="evenodd"/><path d="M449.767 441.138C442.739 436.203 441.042 426.506 445.976 419.478 450.911 412.451 460.608 410.754 467.636 415.688 474.663 420.622 476.361 430.319 471.426 437.347 466.492 444.375 456.795 446.072 449.767 441.138Z" fill="#002060" fill-rule="evenodd"/><text fill="#FF0000" font-family="Arial,Arial_MSFontService,sans-serif" font-weight="700" font-stretch="condensed" font-size="69" transform="translate(260.143 366)">micro<tspan fill="#002060" font-size="107" x="169.49" y="16">Metabolism</tspan></text></g></svg>