<?xml version="1.0" encoding="utf-8"?>
<!-- Generator: Adobe Illustrator 27.0.1, SVG Export Plug-In . SVG Version: 6.00 Build 0)  -->
<svg version="1.0" id="Layer_1" xmlns="http://www.w3.org/2000/svg" xmlns:xlink="http://www.w3.org/1999/xlink" x="0px" y="0px"
	 viewBox="0 0 360 360" style="enable-background:new 0 0 360 360;" xml:space="preserve">
<style type="text/css">
	.st0{fill:#FFFFFF;}
</style>
<path class="st0" d="M269,142.1l-51-51c-2.8-2.8-2.8-7.3,0-10c2.8-2.8,7.3-2.8,10,0l51,51c2.8,2.8,2.8,7.3,0,10
	C276.2,144.8,271.8,144.8,269,142.1z M127.2,273.1c-11.1,11.1-29.1,11.1-40.2,0C75.9,262,75.9,244,87,232.9l131.6-131.7l40.2,40.2
	L127.2,273.1z M283.7,127.3l-51-51c-5.4-5.4-14.2-5.4-19.6,0c-5.4,5.4-5.4,14.2,0,19.6l0.6,0.6L82.2,228.1
	c-13.7,13.7-13.7,36.1,0,49.8s36.1,13.7,49.8,0l131.7-131.7l0.6,0.6c5.4,5.4,14.2,5.4,19.6,0C289.1,141.5,289.1,132.7,283.7,127.3
	L283.7,127.3z"/>
<path class="st0" d="M156.2,190.6c1.9,1.9,1.9,5,0,6.9s-5,1.9-6.9,0c-1.9-1.9-1.9-5,0-6.9C151.2,188.7,154.3,188.7,156.2,190.6
	L156.2,190.6z M144,218.8c2.9,2.9,2.9,7.7,0,10.6c-2.9,2.9-7.7,2.9-10.6,0c-2.9-2.9-2.9-7.7,0-10.6S141.1,215.8,144,218.8z
	 M105.4,252.3c-3-3-3-7.9,0-10.9c3-3,7.9-3,10.9,0c3,3,3,7.9,0,10.9C113.2,255.3,108.4,255.3,105.4,252.3z M93.3,266.7
	c8.5,8.5,22.3,8.5,30.7,0l66.3-66.3l-30.7-30.7L93.3,236C84.8,244.5,84.8,258.2,93.3,266.7z"/>
</svg>
