<?xml version="1.0" encoding="utf-8"?>
<!-- Generator: Adobe Illustrator 27.0.1, SVG Export Plug-In . SVG Version: 6.00 Build 0)  -->
<svg version="1.1" id="Layer_1" xmlns="http://www.w3.org/2000/svg" xmlns:xlink="http://www.w3.org/1999/xlink" x="0px" y="0px"
	 viewBox="0 0 360 360" style="enable-background:new 0 0 360 360;" xml:space="preserve">
<path d="M328.5,116.6l-85.1-85.1c-4.7-4.7-4.7-12.2,0-16.7c4.7-4.7,12.2-4.7,16.7,0l85.1,85.1c4.7,4.7,4.7,12.2,0,16.7
	C340.5,121.2,333.2,121.2,328.5,116.6z M92,335.1c-18.5,18.5-48.5,18.5-67,0c-18.5-18.5-18.5-48.5,0-67L244.5,48.4l67,67L92,335.1z
	 M353.1,92L268,6.9c-9-9-23.7-9-32.7,0c-9,9-9,23.7,0,32.7l1,1L17,260.1c-22.8,22.8-22.8,60.2,0,83.1c22.8,22.8,60.2,22.8,83.1,0
	l219.7-219.7l1,1c9,9,23.7,9,32.7,0C362.1,115.6,362.1,101,353.1,92L353.1,92z"/>
<path d="M140.4,197.5c3.2,3.2,3.2,8.3,0,11.5c-3.2,3.2-8.3,3.2-11.5,0c-3.2-3.2-3.2-8.3,0-11.5C132.1,194.4,137.2,194.4,140.4,197.5
	L140.4,197.5z M120.1,244.6c4.8,4.8,4.8,12.8,0,17.7c-4.8,4.8-12.8,4.8-17.7,0c-4.8-4.8-4.8-12.8,0-17.7
	C107.2,239.7,115.2,239.6,120.1,244.6z M55.7,300.4c-5-5-5-13.2,0-18.2c5-5,13.2-5,18.2,0c5,5,5,13.2,0,18.2
	C68.7,305.4,60.7,305.4,55.7,300.4z M35.5,324.5c14.2,14.2,37.2,14.2,51.2,0l110.6-110.6l-51.2-51.2L35.5,273.3
	C21.3,287.4,21.3,310.3,35.5,324.5z"/>
</svg>
