<?xml version="1.0" encoding="utf-8"?>
<!-- Generator: Adobe Illustrator 27.0.1, SVG Export Plug-In . SVG Version: 6.00 Build 0)  -->
<svg version="1.0" id="Layer_1" xmlns="http://www.w3.org/2000/svg" xmlns:xlink="http://www.w3.org/1999/xlink" x="0px" y="0px"
	 viewBox="0 0 720 524.6" style="enable-background:new 0 0 720 524.6;" xml:space="preserve">
<style type="text/css">
	.st0{fill:#010101;}
	.st1{fill:#2C318E;}
	.st2{fill:#4D97D2;}
	.st3{fill:#45B649;}
	.st4{fill:#FFFFFF;}
</style>
<polygon class="st0" points="475.6,55.7 610.3,245.3 562,280.2 426.5,90.6 475.6,55.7 "/>
<path class="st1" d="M720,350.9H523v18.3h128v75.7h-96.4c-84,0-152.1-68.2-152.1-152.1c0-47.4,22.5-92.3,59-120.6L557,306l79-55.7
	L479.7,29.9l-79,56.5l50.7,70.7c-42.4,31.6-67.3,82.3-67.3,135.5c0,90.6,71.5,165.4,161.3,169.6v22.5H439v39.9h19.1V503h193.7v21.6
	h18.3v-39.9H563.7v-21.6h106.4v-93.9H720V350.9L720,350.9z"/>
<polygon class="st2" points="406.6,64.8 385.8,36.5 437.3,0 458.1,28.3 443.1,39.1 433.1,25.8 411.5,40.8 421.5,54.1 406.6,64.8 "/>
<polygon class="st2" points="580.3,308.5 632.7,271.1 643.5,286.9 591.1,324.3 "/>
<polygon class="st3" points="385.8,385.8 376.7,369.2 295.2,416.6 207.9,365.9 207.9,265.2 295.2,214.5 362.5,253.6 371.6,237.8 
	295.1,192.9 197.8,249.4 101.4,192.9 0,251.9 10,267.7 101.4,214.5 188.7,265.2 188.7,376.6 286,433.1 286,519.6 304.3,519.6 
	304.3,433.1 385.8,385.8 "/>
<rect x="489.3" y="51.8" transform="matrix(0.8141 -0.5807 0.5807 0.8141 -1.2514 332.7848)" class="st4" width="59.7" height="233.1"/>
</svg>
