<?xml version="1.0" encoding="utf-8"?>
<!-- Generator: Adobe Illustrator 27.1.1, SVG Export Plug-In . SVG Version: 6.00 Build 0)  -->
<svg version="1.0" id="Layer_1" xmlns="http://www.w3.org/2000/svg" xmlns:xlink="http://www.w3.org/1999/xlink" x="0px" y="0px"
	 viewBox="0 0 720 72" style="enable-background:new 0 0 720 72;" xml:space="preserve">
<g>
	<path d="M3.9,8.3h29.8v9.3H15.1v10.2h15.9v9.3H15.1V55H3.9V8.3z"/>
	<path d="M37.6,37.2c0-11.5,8.3-18.7,16.9-18.7c10.3,0,15.4,7.5,15.4,17.1c0,2-0.2,3.9-0.4,4.9h-21c1,4.8,4.4,6.9,8.9,6.9
		c2.6,0,5.2-0.8,7.7-2.2l3.6,6.7c-3.7,2.7-8.6,4-12.8,4C45.5,55.9,37.6,49.1,37.6,37.2z M60.3,33.1c0-3.5-1.6-6.2-5.6-6.2
		c-3.2,0-5.8,2-6.5,6.2H60.3z"/>
	<path d="M76.9,19.4h9l0.8,6.2H87c2.6-4.8,6.5-7,10.1-7c2.1,0,3.3,0.2,4.3,0.7l-2.1,9.4c-1.3-0.3-2.1-0.4-3.7-0.4
		c-2.7,0-5.9,1.7-7.7,6.5V55h-11V19.4z"/>
	<path d="M105.9,19.4h9l0.8,4.4h0.3c2.9-2.9,6-5.3,10.8-5.3c4.9,0,8,2.1,9.8,5.9c3.1-3.2,6.4-5.9,11.1-5.9c7.7,0,11.2,5.5,11.2,14.4
		V55h-11V34.4c0-4.9-1.4-6.5-4.2-6.5c-1.7,0-3.6,1.1-5.7,3.2V55h-11.1V34.4c0-4.9-1.3-6.5-4.2-6.5c-1.6,0-3.6,1.1-5.7,3.2V55h-11
		V19.4z"/>
	<path d="M165.7,37.2c0-11.5,8.3-18.7,16.9-18.7c10.3,0,15.4,7.5,15.4,17.1c0,2-0.2,3.9-0.4,4.9h-21c1,4.8,4.4,6.9,8.9,6.9
		c2.6,0,5.2-0.8,7.7-2.2l3.6,6.7c-3.7,2.7-8.6,4-12.8,4C173.6,55.9,165.7,49.1,165.7,37.2z M188.4,33.1c0-3.5-1.6-6.2-5.6-6.2
		c-3.2,0-5.8,2-6.5,6.2H188.4z"/>
	<path d="M205,19.4h9l0.8,4.4h0.3c2.9-2.9,6.5-5.3,11.4-5.3c7.7,0,11,5.5,11,14.4V55h-11.1V34.4c0-4.9-1.3-6.5-4.2-6.5
		c-2.5,0-4,1.2-6.2,3.2V55h-11V19.4z"/>
	<path d="M247.7,41.8V28.1h-4.8v-8.3l5.5-0.4l1.3-10.9h9.2v10.9h8.4v8.7h-8.4v13.6c0,4,1.9,5.5,4.5,5.5c1.1,0,2.4-0.1,3.3-0.5
		l1.7,7.7c-1.9,0.7-4.6,1.4-8.1,1.4C251.4,55.9,247.7,50.2,247.7,41.8z"/>
	<path d="M271.1,45.1c0-7.5,5.8-11.6,19.9-13.1c-0.3-2.9-1.8-4.7-5.5-4.7c-2.9,0-5.7,1-9.3,3l-3.9-7.2c4.7-2.9,9.8-4.7,15.4-4.7
		c9.2,0,14.3,5.1,14.3,16.3V55h-9l-0.8-3.6h-0.3c-2.9,2.7-6.2,4.4-10.2,4.4C275.2,55.9,271.1,51,271.1,45.1z M290.9,44.5v-5.7
		c-7.1,0.9-9.3,2.9-9.3,5.4c0,2.1,1.4,3.1,3.8,3.1C287.7,47.3,289.2,46.2,290.9,44.5z"/>
	<path d="M310.7,41.8V28.1h-4.8v-8.3l5.5-0.4l1.3-10.9h9.2v10.9h8.4v8.7h-8.4v13.6c0,4,1.9,5.5,4.5,5.5c1.1,0,2.4-0.1,3.3-0.5
		l1.7,7.7c-1.9,0.7-4.6,1.4-8.1,1.4C314.4,55.9,310.7,50.2,310.7,41.8z"/>
	<path d="M336.4,8.6c0-3.4,2.6-5.7,6.2-5.7s6.2,2.2,6.2,5.7c0,3.5-2.6,5.7-6.2,5.7S336.4,12.1,336.4,8.6z M337.1,19.4h11V55h-11
		V19.4z"/>
	<path d="M355.2,37.2c0-11.8,8.4-18.7,17.4-18.7c9.1,0,17.5,6.8,17.5,18.7s-8.4,18.7-17.5,18.7C363.6,55.9,355.2,49,355.2,37.2z
		 M378.8,37.2c0-5.9-1.9-9.8-6.1-9.8c-4.2,0-6.1,3.9-6.1,9.8c0,6,1.9,9.8,6.1,9.8C376.8,46.9,378.8,43.1,378.8,37.2z"/>
	<path d="M397.2,19.4h9l0.8,4.4h0.3c2.9-2.9,6.5-5.3,11.4-5.3c7.7,0,11,5.5,11,14.4V55h-11.1V34.4c0-4.9-1.3-6.5-4.2-6.5
		c-2.5,0-4,1.2-6.2,3.2V55h-11V19.4z"/>
	<path d="M453.6,8.3h29.6v9.3h-18.4v8.8h15.7v9.3h-15.7v10h19.1V55h-30.3V8.3z"/>
	<path d="M496.3,36.4l-10.3-17.1H498l2.9,5.5c1,1.9,2,4.1,3,6.1h0.3c0.7-2,1.6-4.2,2.3-6.1l2.2-5.5h11.5L510,37.7L520.9,55H509
		l-3.3-5.6c-1.1-2-2.2-4.2-3.2-6.2h-0.3c-0.9,2-1.8,4.1-2.7,6.2l-2.6,5.6h-11.5L496.3,36.4z"/>
	<path d="M526.4,19.4h9l0.8,3.4h0.3c2.7-2.5,6.3-4.3,10-4.3c8.6,0,13.9,7.1,13.9,18.1c0,12.3-7.2,19.3-14.9,19.3
		c-3.1,0-5.9-1.3-8.4-3.7l0.4,5.5v10.3h-11V19.4z M549,36.7c0-6.2-1.9-9.2-5.8-9.2c-2.1,0-3.8,0.9-5.7,3v14.1
		c1.8,1.6,3.7,2.1,5.4,2.1C546.3,46.8,549,44,549,36.7z"/>
	<path d="M567.6,43.5V4.9h11v39c0,2.3,1.1,3,2,3c0.4,0,0.7,0,1.3-0.1l1.3,8.2c-1.2,0.5-3.1,0.9-5.5,0.9
		C570.1,55.9,567.6,50.9,567.6,43.5z"/>
	<path d="M586.4,37.2c0-11.8,8.4-18.7,17.4-18.7c9.1,0,17.5,6.8,17.5,18.7s-8.4,18.7-17.5,18.7C594.8,55.9,586.4,49,586.4,37.2z
		 M610,37.2c0-5.9-1.9-9.8-6.1-9.8s-6.1,3.9-6.1,9.8c0,6,1.9,9.8,6.1,9.8S610,43.1,610,37.2z"/>
	<path d="M628.4,19.4h9l0.8,6.2h0.3c2.6-4.8,6.5-7,10.1-7c2.1,0,3.3,0.2,4.3,0.7l-2.1,9.4c-1.3-0.3-2.1-0.4-3.7-0.4
		c-2.7,0-5.9,1.7-7.7,6.5V55h-11V19.4z"/>
	<path d="M654.7,37.2c0-11.5,8.3-18.7,16.9-18.7c10.3,0,15.4,7.5,15.4,17.1c0,2-0.2,3.9-0.4,4.9h-21c1,4.8,4.4,6.9,8.9,6.9
		c2.6,0,5.2-0.8,7.7-2.2l3.6,6.7c-3.7,2.7-8.6,4-12.8,4C662.6,55.9,654.7,49.1,654.7,37.2z M677.5,33.1c0-3.5-1.6-6.2-5.6-6.2
		c-3.2,0-5.8,2-6.5,6.2H677.5z"/>
	<path d="M694,19.4h9l0.8,6.2h0.3c2.6-4.8,6.5-7,10.1-7c2.1,0,3.3,0.2,4.3,0.7l-2.1,9.4c-1.3-0.3-2.1-0.4-3.7-0.4
		c-2.7,0-5.9,1.7-7.7,6.5V55h-11V19.4z"/>
</g>
</svg>
