<?xml version="1.0" encoding="utf-8"?>
<!-- Generator: Adobe Illustrator 27.0.1, SVG Export Plug-In . SVG Version: 6.00 Build 0)  -->
<svg version="1.0" id="Layer_1" xmlns="http://www.w3.org/2000/svg" xmlns:xlink="http://www.w3.org/1999/xlink" x="0px" y="0px"
	 viewBox="0 0 360 360" style="enable-background:new 0 0 360 360;" xml:space="preserve">
<style type="text/css">
	.st0{fill-rule:evenodd;clip-rule:evenodd;fill:#FFFFFF;stroke:#FFFFFF;stroke-width:0.25;stroke-miterlimit:10;}
</style>
<path class="st0" d="M179.7,242.6c6.6,0,12-5.4,12-12c0-6.6-5.4-12-12-12s-12,5.4-12,12C167.7,237.3,173.1,242.6,179.7,242.6z
	 M179.7,137c-8.6,0-15.6,7-15.6,15.6c0,5.3-4.3,9.6-9.6,9.6c-5.3,0-9.6-4.3-9.6-9.6c0-19.2,15.6-34.8,34.8-34.8s34.8,15.6,34.8,34.8
	c0,8.2-2.1,14.4-6,19.4c-3.1,3.9-7.1,6.6-9.7,8.4c-0.4,0.3-0.7,0.5-1,0.7c-2.9,2-4.6,3.4-5.9,5.5c-1.2,2.1-2.6,5.7-2.6,12.8
	c0,5.3-4.3,9.6-9.6,9.6c-5.3,0-9.6-4.3-9.6-9.6c0-9.5,1.8-16.8,5.3-22.7c3.5-5.8,8.1-9.1,11.5-11.5c0.4-0.3,0.8-0.6,1.2-0.8
	c2.9-2,4.2-2.9,5.3-4.3c0.8-1,1.9-2.9,1.9-7.5C195.3,144,188.4,137,179.7,137L179.7,137z M179.7,288.2c59.6,0,108-48.4,108-108
	s-48.4-108-108-108s-108,48.4-108,108S120.1,288.2,179.7,288.2z M179.7,269c49,0,88.8-39.8,88.8-88.8s-39.8-88.8-88.8-88.8
	s-88.8,39.8-88.8,88.8S130.7,269,179.7,269z"/>
</svg>
