<?xml version="1.0" encoding="UTF-8"?>
<svg id="Layer_1" xmlns="http://www.w3.org/2000/svg" version="1.1" viewBox="0 0 360 360">
  <!-- Generator: Adobe Illustrator 29.4.0, SVG Export Plug-In . SVG Version: 2.1.0 Build 152)  -->
  <path d="M103.6,103.6l-14.3-14.3c-6.4-6.4-17.3-1.9-17.3,7.1v46.4c0,5.6,4.5,10.1,10.1,10.1h46.4c9,0,13.5-10.9,7.2-17.3l-13-13c14.6-14.6,34.9-23.7,57.2-23.7,44.7,0,81,36.3,81,81s-36.3,81-81,81-33.2-5.4-46.3-14.5c-6.1-4.3-14.5-2.8-18.8,3.3s-2.8,14.5,3.3,18.8c17.5,12.2,38.9,19.4,61.8,19.4,59.7,0,108-48.3,108-108s-48.3-108-108-108-56.8,12.1-76.4,31.6ZM180,126c-5.6,0-10.1,4.5-10.1,10.1v43.9c0,2.7,1.1,5.3,3,7.2l30.4,30.4c4,4,10.4,4,14.3,0s4-10.4,0-14.3l-27.4-27.4v-39.7c0-5.6-4.5-10.1-10.1-10.1h0Z" fill="#fff"/>
</svg>