<?xml version="1.0" encoding="UTF-8"?>
<svg xmlns="http://www.w3.org/2000/svg" version="1.1" viewBox="0 0 360 360">
  <defs>
    <style>
      .cls-1 {
        stroke: #2afff6;
        stroke-width: 7px;
      }

      .cls-1, .cls-2 {
        fill: #74c04c;
        stroke-miterlimit: 10;
      }

      .cls-3 {
        fill: #fff;
      }

      .cls-2 {
        stroke: #fff;
        stroke-width: 12px;
      }
    </style>
  </defs>
  <!-- Generator: Adobe Illustrator 28.6.0, SVG Export Plug-In . SVG Version: 1.2.0 Build 709)  -->
  <g>
    <g id="Layer_1">
      <path class="cls-1" d="M-89.1,36.8"/>
      <circle class="cls-3" cx="183.4" cy="276.7" r="20.4"/>
      <circle class="cls-3" cx="92.4" cy="229.1" r="20.4"/>
      <circle class="cls-3" cx="195.9" cy="196.2" r="20.4"/>
      <circle class="cls-3" cx="267.6" cy="129.9" r="20.4"/>
      <circle class="cls-3" cx="183.4" cy="83.3" r="20.4"/>
      <circle class="cls-3" cx="267.6" cy="229.1" r="20.4"/>
      <circle class="cls-3" cx="159.1" cy="142.8" r="20.4"/>
      <circle class="cls-3" cx="95.3" cy="132.6" r="20.4"/>
      <line class="cls-2" x1="267.6" y1="129.9" x2="267.6" y2="229.1"/>
      <line class="cls-2" x1="155.3" y1="142.8" x2="95.3" y2="134.8"/>
      <line class="cls-2" x1="183.4" y1="276.7" x2="95.3" y2="229.1"/>
      <line class="cls-2" x1="183.4" y1="276.7" x2="267.6" y2="229.1"/>
      <line class="cls-2" x1="195.9" y1="196.2" x2="267.6" y2="129.9"/>
      <line class="cls-2" x1="95.3" y1="133.2" x2="95.3" y2="229.1"/>
      <line class="cls-2" x1="183.4" y1="83.3" x2="95.3" y2="134.8"/>
      <line class="cls-2" x1="183.4" y1="83.3" x2="267.6" y2="129.9"/>
      <line class="cls-2" x1="267.6" y1="131.3" x2="159.1" y2="142.8"/>
      <line class="cls-2" x1="159.1" y1="142.8" x2="95.3" y2="230.4"/>
      <line class="cls-2" x1="195.9" y1="196.2" x2="95.3" y2="230.4"/>
      <line class="cls-2" x1="267.6" y1="229.1" x2="195.9" y2="196.2"/>
      <line class="cls-2" x1="183.4" y1="276.7" x2="195.9" y2="196.2"/>
    </g>
  </g>
</svg>