<?xml version="1.0" encoding="utf-8"?>
<!-- Generator: Adobe Illustrator 28.5.0, SVG Export Plug-In . SVG Version: 9.03 Build 54727)  -->
<svg version="1.0" id="Layer_1" xmlns="http://www.w3.org/2000/svg" xmlns:xlink="http://www.w3.org/1999/xlink" x="0px" y="0px"
	 viewBox="0 0 360 360" style="enable-background:new 0 0 360 360;" xml:space="preserve">
<style type="text/css">
	.st0{fill-rule:evenodd;clip-rule:evenodd;fill:#FFFFFF;}
</style>
<path class="st0" d="M180,277.5c-2.5,0-66.7,0-66.7-15.2c0-15.2,63.7-15.2,66.7-15.2c2.5,0,66.7,0,66.7,15.2
	C246.7,277.5,182.5,277.5,180,277.5 M153.4,242.4v-21.1h53.2v21.1c-8.9-0.8-18.1-1.3-26.6-1.3C171.1,241.2,162.3,241.6,153.4,242.4
	 M270.3,202.4H89.7c-2.1,0-3.4-1.7-3.4-3.4V98.6c0-1.7,1.3-3,3.4-3h180.6c1.7,0,3,1.7,3,3V199C273.2,200.7,272,202.4,270.3,202.4
	 M285,215.4H75c-1.7,0-3-1.7-3-3.4V85.5c0-1.7,1.3-3,3-3H285c1.7,0,3,1.3,3,3v126.6C288,213.8,286.3,215.4,285,215.4"/>
<path class="st0" d="M240.8,253.8"/>
</svg>
