<?xml version="1.0" encoding="utf-8"?>
<!-- Generator: Adobe Illustrator 27.0.1, SVG Export Plug-In . SVG Version: 6.00 Build 0)  -->
<svg version="1.0" id="Layer_1" xmlns="http://www.w3.org/2000/svg" xmlns:xlink="http://www.w3.org/1999/xlink" x="0px" y="0px"
	 viewBox="0 0 360 360" style="enable-background:new 0 0 360 360;" xml:space="preserve">
<style type="text/css">
	.st0{fill:#FFFFFF;}
</style>
<path class="st0" d="M169.4,107.3c0,2.3-1,4.6-2.6,6.3c-1.7,1.7-3.9,2.6-6.3,2.6c-11.8,0-23,4.7-31.3,13c-8.3,8.3-13,19.6-13,31.3
	c0,4.9-4,8.9-8.9,8.9c-4.9,0-8.9-4-8.9-8.9c0-16.4,6.5-32.3,18.2-43.9c11.6-11.6,27.4-18.2,43.9-18.2c2.3,0,4.6,1,6.3,2.6
	C168.4,102.6,169.4,104.9,169.4,107.3L169.4,107.3z M110.3,210.7c-15.6-15.6-23-37.6-20.2-59.4c2.9-21.8,15.7-41.2,34.8-52.2
	s42.2-12.5,62.6-4.1c20.4,8.4,35.7,25.9,41.4,47.2c5.7,21.3,1.2,44-12.2,61.6c-13.4,17.5-34.2,27.8-56.2,27.8
	C141.7,231.5,123.6,224,110.3,210.7L110.3,210.7z M285.9,273.4l-56.7-56.8c19.3-23.7,25-55.7,15.1-84.6s-34-50.7-63.7-57.7
	c-29.8-7-61.1,1.9-82.8,23.5c-21.5,21.7-30.4,52.9-23.5,82.7s28.7,53.9,57.7,63.7c28.9,9.9,60.9,4.2,84.6-15.1l56.8,56.8
	c3.5,3,8.8,2.8,12.1-0.5C288.7,282.1,288.9,276.9,285.9,273.4L285.9,273.4z"/>
</svg>
