<?xml version="1.0" encoding="utf-8"?>
<!-- Generator: Adobe Illustrator 27.0.1, SVG Export Plug-In . SVG Version: 6.00 Build 0)  -->
<svg version="1.0" id="Layer_1" xmlns="http://www.w3.org/2000/svg" xmlns:xlink="http://www.w3.org/1999/xlink" x="0px" y="0px"
	 viewBox="0 0 360 360" style="enable-background:new 0 0 360 360;" xml:space="preserve">
<style type="text/css">
	.st0{fill:#FFFFFF;}
</style>
<path class="st0" d="M170.2,228.3c2.5,2.5,5.8,4,9.4,4h0.1c3.6,0,7.1-1.4,9.6-3.9l41-41c6.1-6.3,4.5-14.3-0.1-19
	c-4.7-4.7-12.7-6.2-19-0.1l-17.9,17.9V85.7c0-7.4-6.1-13.5-13.5-13.5c-7.4,0-13.5,6.1-13.5,13.5v100.4l-18-18
	c-6.2-6.1-14.3-4.5-19,0.1c-4.7,4.7-6.2,12.7-0.1,19L170.2,228.3z"/>
<path class="st0" d="M261.7,205.3c-7.4,0-13.5,6.1-13.5,13.5v14.9c0,15.2-12.4,27.5-27.5,27.5h-82c-15.2,0-27.5-12.4-27.5-27.5
	v-14.9c0-7.4-6.1-13.5-13.5-13.5c-7.4,0-13.5,6.1-13.5,13.5v14.9c0,30.1,24.4,54.5,54.5,54.5h82c30.1,0,54.5-24.5,54.5-54.5v-14.9
	C275.2,211.3,269.2,205.3,261.7,205.3z"/>
</svg>
