<?xml version="1.0" encoding="utf-8"?>
<!-- Generator: Adobe Illustrator 27.0.1, SVG Export Plug-In . SVG Version: 6.00 Build 0)  -->
<svg version="1.0" id="Layer_1" xmlns="http://www.w3.org/2000/svg" xmlns:xlink="http://www.w3.org/1999/xlink" x="0px" y="0px"
	 viewBox="0 0 360 360" style="enable-background:new 0 0 360 360;" xml:space="preserve">
<style type="text/css">
	.st0{fill:#FFFFFF;}
</style>
<path class="st0" d="M237.4,288.2c-0.2,0-0.5,0-0.7-0.1c-4-0.4-6.8-4-6.4-7.9c0.2-2.6,5.8-64.5-53.6-93.6
	c-68.5-33.6-61.7-107.3-61.6-108c0.4-4,4-6.8,7.9-6.4c3.9,0.4,6.8,4,6.4,7.9c-0.2,2.6-5.8,64.5,53.6,93.6
	c68.5,33.6,61.7,107.3,61.6,108C244.1,285.5,241,288.2,237.4,288.2L237.4,288.2z"/>
<path class="st0" d="M122.1,288.2c-3.7,0-6.8-2.8-7.1-6.5c-0.2-2.1-4.8-52.1,33.5-88.5c2.9-2.8,7.4-2.6,10.2,0.2
	c2.8,2.9,2.6,7.4-0.2,10.2c-33.3,31.6-29.2,76.2-29.2,76.6c0.4,4-2.5,7.5-6.4,7.9C122.6,288.2,122.4,288.2,122.1,288.2L122.1,288.2z
	"/>
<path class="st0" d="M206,169.2c-1.9,0-3.8-0.8-5.2-2.2c-2.8-2.9-2.6-7.4,0.2-10.2c33.3-31.6,29.2-76.2,29.2-76.6
	c-0.4-4,2.5-7.5,6.5-7.9c3.7-0.4,7.5,2.5,7.9,6.4c0.2,2.1,4.8,52.1-33.5,88.5C209.5,168.6,207.8,169.2,206,169.2L206,169.2z"/>
<path class="st0" d="M195.8,237.8h-32.1c-4,0-7.2-3.2-7.2-7.2s3.2-7.2,7.2-7.2h32.2c4,0,7.2,3.2,7.2,7.2
	C203,234.6,199.8,237.8,195.8,237.8L195.8,237.8z"/>
<path class="st0" d="M207.5,266.6h-55.4c-4,0-7.2-3.2-7.2-7.2c0-4,3.2-7.2,7.2-7.2h55.4c4,0,7.2,3.2,7.2,7.2
	C214.7,263.4,211.5,266.6,207.5,266.6z"/>
<path class="st0" d="M207.5,108.2h-55.4c-4,0-7.2-3.2-7.2-7.2c0-4,3.2-7.2,7.2-7.2h55.4c4,0,7.2,3.2,7.2,7.2
	C214.7,105,211.5,108.2,207.5,108.2z"/>
<path class="st0" d="M195.8,137h-32.1c-4,0-7.2-3.2-7.2-7.2c0-4,3.2-7.2,7.2-7.2h32.2c4,0,7.2,3.2,7.2,7.2
	C203,133.8,199.8,137,195.8,137L195.8,137z"/>
<path class="st0" d="M166.2,149.4"/>
</svg>
